<svg xmlns="http://www.w3.org/2000/svg" xmlns:xlink="http://www.w3.org/1999/xlink" xmlns:lucid="lucid" width="662.5" height="682"><g transform="translate(-478.5000499999999 -239)" lucid:page-tab-id="0_0"><path d="M0 0h1500v1000H0z" fill="#fff"/><path d="M960 248a8 8 0 0 1 8-8h144a8 8 0 0 1 8 8v144a8 8 0 0 1-8 8H968a8 8 0 0 1-8-8z" stroke="#000" stroke-width="2" fill="#fff"/><use xlink:href="#a" transform="matrix(1,0,0,1,965,245) translate(39.34971788194445 83.16460503472223)"/><path d="M520 468a8 8 0 0 1 8-8h144a8 8 0 0 1 8 8v144a8 8 0 0 1-8 8H528a8 8 0 0 1-8-8z" stroke="#000" stroke-width="2" fill="#fff"/><use xlink:href="#b" transform="matrix(1,0,0,1,525,465) translate(45.69509548611112 83.16460503472223)"/><path d="M960 468a8 8 0 0 1 8-8h144a8 8 0 0 1 8 8v144a8 8 0 0 1-8 8H968a8 8 0 0 1-8-8z" stroke="#000" stroke-width="2" fill="#fff"/><use xlink:href="#c" transform="matrix(1,0,0,1,965,465) translate(33.1906467013889 83.16460503472223)"/><use xlink:href="#d" transform="matrix(1,0,0,1,965,465) translate(86.36469184027777 83.16460503472223)"/><path d="M720 788a8 8 0 0 1 8-8h144a8 8 0 0 1 8 8v104a8 8 0 0 1-8 8H728a8 8 0 0 1-8-8z" stroke="#000" stroke-width="2" fill="#fff"/><use xlink:href="#e" transform="matrix(1,0,0,1,732,792) translate(10.118977864583357 56.16460503472222)"/><path d="M980 768a8 8 0 0 1 8-8h144a8 8 0 0 1 8 8v144a8 8 0 0 1-8 8H988a8 8 0 0 1-8-8z" stroke="#000" stroke-width="2" fill="#fff"/><use xlink:href="#f" transform="matrix(1,0,0,1,985,765) translate(38.007215711805564 83.16460503472223)"/><path d="M1040 401.5v41.12" stroke="#3a414a" fill="none"/><path d="M1040.47 401.5h-.94v-.5h.94z" stroke="#3a414a" stroke-width=".05" fill="#3a414a"/><path d="M1040 457.38l-4.63-14.26h9.27z" stroke="#3a414a" fill="#3a414a"/><path d="M958.5 320H832a12 12 0 0 0-12 12v196a12 12 0 0 1-12 12H697.38" stroke="#3a414a" fill="none"/><path d="M959 320.48h-.5v-.96h.5z" stroke="#3a414a" stroke-width=".05" fill="#3a414a"/><path d="M682.62 540l14.26-4.63v9.26z" stroke="#3a414a" fill="#3a414a"/><path d="M718.5 840H691a12 12 0 0 1-12-12V692a12 12 0 0 0-12-12H491a12 12 0 0 1-12-12V552a12 12 0 0 1 12-12h11.62" stroke="#3a414a" fill="none"/><path d="M719 840.48h-.5v-.96h.5z" stroke="#3a414a" stroke-width=".05" fill="#3a414a"/><path d="M517.38 540l-14.26 4.63v-9.26z" stroke="#3a414a" fill="#3a414a"/><path d="M1040 621.5V688a12 12 0 0 1-12 12H812a12 12 0 0 0-12 12v50.62" stroke="#3a414a" fill="none"/><path d="M1040.47 621.5h-.94v-.5h.94z" stroke="#3a414a" stroke-width=".05" fill="#3a414a"/><path d="M800 777.38l-4.63-14.26h9.26z" stroke="#3a414a" fill="#3a414a"/><path d="M718.5 840H691a12 12 0 0 1-12-12v-76a12 12 0 0 1 12-12h224a5 5 0 0 1 5 5 5 5 0 0 0 5 5h4.5a9.5 9.5 0 0 1 9.5 9.5V828a12 12 0 0 0 12 12h11.62" stroke="#3a414a" fill="none"/><path d="M719 840.48h-.5v-.96h.5z" stroke="#3a414a" stroke-width=".05" fill="#3a414a"/><path d="M977.38 840l-14.26 4.63v-9.26z" stroke="#3a414a" fill="#3a414a"/><defs><path fill="#3a414a" d="M657 26c-323 0-524-166-541-416h195c15 169 171 246 346 246 202 0 356-106 356-265 5-203-294-238-475-293-239-73-380-191-380-389 0-252 224-419 512-419 294 0 499 171 508 396H992c-17-145-151-228-328-228-193 0-321 102-321 242 0 156 175 211 284 241l149 41c160 44 422 134 422 412 0 244-197 432-541 432" id="g"/><path fill="#3a414a" d="M158 418v-1536h174v179h20c37-59 106-193 324-193 279 0 474 222 474 576 0 356-194 580-473 580-213 0-288-135-325-197h-14v591H158zm492-555c209 0 317-186 317-421 0-232-105-413-317-413-206 0-314 166-314 413 0 249 111 421 314 421" id="h"/><path fill="#3a414a" d="M338-1490V0H158v-1490h180" id="i"/><path fill="#3a414a" d="M471 26C259 26 90-98 90-318c0-256 228-303 435-329 202-27 287-16 287-108 0-139-79-219-234-219-161 0-248 86-283 164l-173-57c86-203 278-265 451-265 150 0 419 46 419 395V0H815v-152h-12C765-73 660 26 471 26zm31-159c199 0 310-134 310-271v-155c-30 35-226 55-295 64-131 17-246 59-246 186 0 116 97 176 231 176" id="j"/><path fill="#3a414a" d="M538 24C308 24 148-78 108-271l171-41c32 123 123 178 257 178 156 0 256-77 256-169 0-77-54-128-164-154l-186-44c-203-48-300-148-300-305 0-192 176-326 414-326 230 0 351 112 402 269l-163 42c-31-80-94-158-238-158-133 0-233 69-233 162 0 83 57 129 188 160l169 40c203 48 298 149 298 302 0 196-179 339-441 339" id="k"/><path fill="#3a414a" d="M338-670V0H158v-1490h180v566c73-149 190-208 336-208 226 0 379 139 379 422V0H872v-695c0-172-96-275-252-275-161 0-282 109-282 300" id="l"/><g id="a"><use transform="matrix(0.010959201388888886,0,0,0.010959201388888886,0,0)" xlink:href="#g"/><use transform="matrix(0.010959201388888886,0,0,0.010959201388888886,14.400390624999996,0)" xlink:href="#h"/><use transform="matrix(0.010959201388888886,0,0,0.010959201388888886,28.14322916666666,0)" xlink:href="#i"/><use transform="matrix(0.010959201388888886,0,0,0.010959201388888886,33.57899305555555,0)" xlink:href="#j"/><use transform="matrix(0.010959201388888886,0,0,0.010959201388888886,46.182074652777764,0)" xlink:href="#k"/><use transform="matrix(0.010959201388888886,0,0,0.010959201388888886,58.02897135416665,0)" xlink:href="#l"/></g><path fill="#3a414a" d="M180 0v-1490h190v1322h690V0H180" id="m"/><path fill="#3a414a" d="M613 24c-304 0-509-231-509-576 0-350 205-580 509-580 305 0 511 230 511 580 0 345-206 576-511 576zm0-161c226 0 329-195 329-415 0-222-103-419-329-419-223 0-326 196-326 419 0 220 103 415 326 415" id="n"/><path fill="#3a414a" d="M611 442c-248 0-391-105-460-228l146-94c47 65 117 165 314 165 178 0 307-82 307-266v-224h-17C863-141 792-18 576-18c-268 0-472-195-472-546 0-346 197-568 476-568 216 0 288 133 326 193h17v-179h175V29c0 289-215 413-487 413zm-5-620c203 0 314-146 314-390 0-237-108-403-314-403-213 0-319 180-319 403 0 230 109 390 319 390" id="o"/><path fill="#3a414a" d="M158 0v-1118h180V0H158zm91-1301c-68 0-125-53-125-119s57-119 125-119c69 0 126 53 126 119s-57 119-126 119" id="p"/><path fill="#3a414a" d="M338-670V0H158v-1118h173l1 207c72-158 192-221 342-221 226 0 378 139 378 422V0H872v-695c0-172-96-275-252-275-161 0-282 109-282 300" id="q"/><g id="b"><use transform="matrix(0.010959201388888886,0,0,0.010959201388888886,0,0)" xlink:href="#m"/><use transform="matrix(0.010959201388888886,0,0,0.010959201388888886,12.69075520833333,0)" xlink:href="#n"/><use transform="matrix(0.010959201388888886,0,0,0.010959201388888886,26.148654513888882,0)" xlink:href="#o"/><use transform="matrix(0.010959201388888886,0,0,0.010959201388888886,39.91341145833332,0)" xlink:href="#p"/><use transform="matrix(0.010959201388888886,0,0,0.010959201388888886,45.349175347222214,0)" xlink:href="#q"/></g><g id="c"><use transform="matrix(0.010959201388888886,0,0,0.010959201388888886,0,0)" xlink:href="#g"/><use transform="matrix(0.010959201388888886,0,0,0.010959201388888886,14.400390624999996,0)" xlink:href="#p"/><use transform="matrix(0.010959201388888886,0,0,0.010959201388888886,19.836154513888886,0)" xlink:href="#o"/><use transform="matrix(0.010959201388888886,0,0,0.010959201388888886,33.60091145833333,0)" xlink:href="#q"/></g><path fill="#3a414a" d="M763 24c-353 0-583-224-583-531v-983h190v968c0 214 149 370 393 370 243 0 391-156 391-370v-968h190v983c0 307-230 531-581 531" id="r"/><g id="d"><use transform="matrix(0.010959201388888886,0,0,0.010959201388888886,0,0)" xlink:href="#r"/><use transform="matrix(0.010959201388888886,0,0,0.010959201388888886,16.701822916666664,0)" xlink:href="#h"/></g><path fill="#3a414a" d="M645 0H180v-1490h484c435 0 692 280 692 742 0 466-257 748-711 748zM370-168h263c363 0 539-218 539-580 0-358-176-574-521-574H370v1154" id="s"/><path fill="#3a414a" d="M677 24c-213 0-288-135-325-197h-20V0H158v-1490h180v551h14c37-59 106-193 324-193 279 0 474 222 474 576 0 356-194 580-473 580zm-27-161c209 0 317-186 317-421 0-232-105-413-317-413-206 0-314 166-314 413 0 249 111 421 314 421" id="t"/><path fill="#3a414a" d="M158 0v-1118h174v172h12c41-113 157-188 290-188 26 0 70 2 91 3v181c-11-2-60-10-108-10-161 0-279 109-279 260V0H158" id="u"/><path fill="#3a414a" d="M577 24c-279 0-473-224-473-580 0-354 195-576 474-576 218 0 287 134 324 193h14v-551h180V0H922v-173h-20C865-111 790 24 577 24zm27-161c203 0 314-172 314-421 0-247-108-413-314-413-212 0-317 181-317 413 0 235 108 421 317 421" id="v"/><g id="e"><use transform="matrix(0.010959201388888886,0,0,0.010959201388888886,0,0)" xlink:href="#s"/><use transform="matrix(0.010959201388888886,0,0,0.010959201388888886,16.197699652777775,0)" xlink:href="#j"/><use transform="matrix(0.010959201388888886,0,0,0.010959201388888886,28.800781249999993,0)" xlink:href="#k"/><use transform="matrix(0.010959201388888886,0,0,0.010959201388888886,40.64767795138888,0)" xlink:href="#l"/><use transform="matrix(0.010959201388888886,0,0,0.010959201388888886,53.91927083333332,0)" xlink:href="#t"/><use transform="matrix(0.010959201388888886,0,0,0.010959201388888886,67.66210937499999,0)" xlink:href="#n"/><use transform="matrix(0.010959201388888886,0,0,0.010959201388888886,81.33919270833331,0)" xlink:href="#j"/><use transform="matrix(0.010959201388888886,0,0,0.010959201388888886,93.94227430555553,0)" xlink:href="#u"/><use transform="matrix(0.010959201388888886,0,0,0.010959201388888886,102.01920572916663,0)" xlink:href="#v"/></g><path fill="#3a414a" d="M537 14c-226 0-379-139-379-422v-710h180v695c0 172 97 275 253 275 160 0 281-109 281-300v-670h181V0H879v-209C806-46 684 14 537 14" id="w"/><path fill="#3a414a" d="M598-1118v154H368v674c0 100 37 144 132 144 23 0 62-6 92-12L629-6c-37 13-88 20-134 20-193 0-307-107-307-290v-688H20v-154h168v-266h180v266h230" id="x"/><g id="f"><use transform="matrix(0.010959201388888886,0,0,0.010959201388888886,0,0)" xlink:href="#m"/><use transform="matrix(0.010959201388888886,0,0,0.010959201388888886,12.69075520833333,0)" xlink:href="#n"/><use transform="matrix(0.010959201388888886,0,0,0.010959201388888886,26.148654513888882,0)" xlink:href="#o"/><use transform="matrix(0.010959201388888886,0,0,0.010959201388888886,39.91341145833332,0)" xlink:href="#n"/><use transform="matrix(0.010959201388888886,0,0,0.010959201388888886,53.371310763888864,0)" xlink:href="#w"/><use transform="matrix(0.010959201388888886,0,0,0.010959201388888886,66.64290364583331,0)" xlink:href="#x"/></g></defs></g></svg>